<svg xmlns="http://www.w3.org/2000/svg" xmlns:xlink="http://www.w3.org/1999/xlink" width="500" zoomAndPan="magnify" viewBox="0 0 375 374.999991" height="500" preserveAspectRatio="xMidYMid meet" version="1.0"><defs><clipPath id="35b349f085"><path d="M 0 0 L 337.773438 0 L 337.773438 363.023438 L 0 363.023438 Z M 0 0 " clip-rule="nonzero"/></clipPath></defs><rect x="-37.5" width="450" fill="#ffffff" y="-37.499999" height="449.999989" fill-opacity="1"/><rect x="-37.5" width="450" fill="#ffffff" y="-37.499999" height="449.999989" fill-opacity="1"/><g clip-path="url(#35b349f085)"><rect x="-37.5" width="450" fill="#ffffff" y="-37.499999" height="449.999989" fill-opacity="1"/><rect x="-37.5" width="450" fill="#ffffff" y="-37.499999" height="449.999989" fill-opacity="1"/><rect x="-37.5" width="450" fill="#ffffff" y="-37.499999" height="449.999989" fill-opacity="1"/></g><path fill="#39474f" d="M 243.820312 318.738281 L 152.398438 318.738281 C 147.765625 318.738281 144.007812 314.976562 144.007812 310.347656 C 144.007812 305.707031 147.765625 301.949219 152.398438 301.949219 L 243.820312 301.949219 C 248.460938 301.949219 252.21875 305.707031 252.21875 310.347656 C 252.21875 314.976562 248.460938 318.738281 243.820312 318.738281 Z M 243.820312 318.738281 " fill-opacity="1" fill-rule="nonzero"/><path fill="#39474f" d="M 198.109375 318.738281 C 193.472656 318.738281 189.710938 314.976562 189.710938 310.347656 L 189.710938 241.554688 C 189.710938 236.914062 193.472656 233.15625 198.109375 233.15625 C 202.75 233.15625 206.507812 236.914062 206.507812 241.554688 L 206.507812 310.347656 C 206.507812 314.976562 202.75 318.738281 198.109375 318.738281 Z M 198.109375 318.738281 " fill-opacity="1" fill-rule="nonzero"/><path fill="#39474f" d="M 198.566406 211.519531 L 197.652344 211.519531 C 172.664062 211.519531 152.40625 191.253906 152.40625 166.265625 L 152.40625 86.285156 C 152.40625 61.296875 172.664062 41.03125 197.652344 41.03125 L 198.566406 41.03125 C 223.5625 41.03125 243.820312 61.296875 243.820312 86.285156 L 243.820312 166.265625 C 243.820312 191.253906 223.5625 211.519531 198.566406 211.519531 Z M 198.566406 211.519531 " fill-opacity="1" fill-rule="nonzero"/><path fill="#39474f" d="M 198.566406 244.945312 L 197.652344 244.945312 C 176.640625 244.945312 156.882812 236.761719 142.015625 221.902344 C 127.15625 207.042969 118.96875 187.28125 118.96875 166.265625 C 118.96875 161.625 122.726562 157.867188 127.367188 157.867188 C 132.007812 157.867188 135.765625 161.625 135.765625 166.265625 C 135.765625 182.792969 142.207031 198.332031 153.890625 210.027344 C 165.582031 221.71875 181.125 228.152344 197.652344 228.152344 L 198.566406 228.152344 C 215.101562 228.152344 230.644531 221.71875 242.328125 210.027344 C 254.019531 198.332031 260.453125 182.792969 260.453125 166.265625 C 260.453125 161.625 264.214844 157.867188 268.851562 157.867188 C 273.492188 157.867188 277.25 161.625 277.25 166.265625 C 277.25 187.28125 269.0625 207.042969 254.203125 221.902344 C 239.34375 236.761719 219.585938 244.945312 198.566406 244.945312 Z M 198.566406 244.945312 " fill-opacity="1" fill-rule="nonzero"/></svg>