<svg xmlns="http://www.w3.org/2000/svg" xmlns:xlink="http://www.w3.org/1999/xlink" width="500" zoomAndPan="magnify" viewBox="0 0 375 374.999991" height="500" preserveAspectRatio="xMidYMid meet" version="1.0"><defs><clipPath id="c7f2fc98fb"><path d="M 56.25 56.25 L 318.75 56.25 L 318.75 318.75 L 56.25 318.75 Z M 56.25 56.25 " clip-rule="nonzero"/></clipPath><clipPath id="c84d0f3609"><path d="M 126.589844 116.5 L 130.886719 116.5 L 130.886719 120.148438 L 126.589844 120.148438 Z M 126.589844 116.5 " clip-rule="nonzero"/></clipPath><clipPath id="8d494708db"><path d="M 130.875 117.824219 C 128.925781 120.824219 127.199219 120.226562 126.75 119.625 C 126.375 119.023438 126.75 117.148438 127.351562 116.699219 C 127.875 116.25 130.273438 116.851562 130.273438 116.851562 " clip-rule="nonzero"/></clipPath><clipPath id="dc53c86a89"><path d="M 0.589844 0.5 L 4.886719 0.5 L 4.886719 4.148438 L 0.589844 4.148438 Z M 0.589844 0.5 " clip-rule="nonzero"/></clipPath><clipPath id="0b0fc891b9"><path d="M 4.875 1.824219 C 2.925781 4.824219 1.199219 4.226562 0.75 3.625 C 0.375 3.023438 0.75 1.148438 1.351562 0.699219 C 1.875 0.25 4.273438 0.851562 4.273438 0.851562 " clip-rule="nonzero"/></clipPath><clipPath id="a8d0eb871d"><rect x="0" width="5" y="0" height="5"/></clipPath></defs><rect x="-37.5" width="450" fill="#ffffff" y="-37.499999" height="449.999989" fill-opacity="1"/><rect x="-37.5" width="450" fill="#ffffff" y="-37.499999" height="449.999989" fill-opacity="1"/><g clip-path="url(#c7f2fc98fb)"><path fill="#000000" d="M 187.5 56.25 C 115.015625 56.25 56.25 115.015625 56.25 187.5 C 56.25 259.984375 115.015625 318.75 187.5 318.75 C 259.984375 318.75 318.75 259.984375 318.75 187.5 C 318.75 115.015625 259.984375 56.25 187.5 56.25 Z M 235.222656 200.484375 L 200.308594 200.484375 L 200.308594 235.222656 L 174.515625 235.222656 L 174.515625 200.484375 L 139.777344 200.484375 L 139.777344 174.691406 L 174.515625 174.691406 L 174.515625 139.777344 L 200.308594 139.777344 L 200.308594 174.691406 L 235.222656 174.691406 Z M 235.222656 200.484375 " fill-opacity="1" fill-rule="nonzero"/></g><g clip-path="url(#c84d0f3609)"><g clip-path="url(#8d494708db)"><g transform="matrix(1, 0, 0, 1, 126, 116)"><g clip-path="url(#a8d0eb871d)"><g clip-path="url(#dc53c86a89)"><g clip-path="url(#0b0fc891b9)"><rect x="-208.5" width="540" fill="#000000" height="539.999987" y="-198.499998" fill-opacity="1"/></g></g></g></g></g></g></svg>